<?xml version="1.0" encoding="UTF-8" standalone="no"?>
<svg
   xmlns:dc="http://purl.org/dc/elements/1.1/"
   xmlns:cc="http://creativecommons.org/ns#"
   xmlns:rdf="http://www.w3.org/1999/02/22-rdf-syntax-ns#"
   xmlns:svg="http://www.w3.org/2000/svg"
   xmlns="http://www.w3.org/2000/svg"
   xmlns:sodipodi="http://sodipodi.sourceforge.net/DTD/sodipodi-0.dtd"
   xmlns:inkscape="http://www.inkscape.org/namespaces/inkscape"
   version="1.0"
   width="512.000000pt"
   height="512.000000pt"
   viewBox="0 0 512.000000 512.000000"
   preserveAspectRatio="xMidYMid meet"
   id="svg2170"
   sodipodi:docname="monty.svg"
   inkscape:version="0.92.3 (2405546, 2018-03-11)">
  <metadata
     id="metadata2176">
    <rdf:RDF>
      <cc:Work
         rdf:about="">
        <dc:format>image/svg+xml</dc:format>
        <dc:type
           rdf:resource="http://purl.org/dc/dcmitype/StillImage" />
      </cc:Work>
    </rdf:RDF>
  </metadata>
  <defs
     id="defs2174" />
  <sodipodi:namedview
     pagecolor="#ffffff"
     bordercolor="#666666"
     borderopacity="1"
     objecttolerance="10"
     gridtolerance="10"
     guidetolerance="10"
     inkscape:pageopacity="0"
     inkscape:pageshadow="2"
     inkscape:window-width="1920"
     inkscape:window-height="1025"
     id="namedview2172"
     showgrid="false"
     inkscape:zoom="0.34570313"
     inkscape:cx="-130.16949"
     inkscape:cy="341.33333"
     inkscape:window-x="0"
     inkscape:window-y="27"
     inkscape:window-maximized="1"
     inkscape:current-layer="svg2170" />
  <g
     transform="translate(0.000000,512.000000) scale(0.100000,-0.100000)"
     fill="#000000"
     stroke="none"
     id="g2168"
     style="fill:#272727;fill-opacity:1">
    <path
       d="M2575 5105 c-299 -66 -507 -309 -523 -611 -10 -198 52 -359 192 -499 169 -169 401 -234 630 -175 181 46 344 177 423 340 103 212 94 449 -25 645 -139 230 -436 358 -697 300z"
       id="path2162"
       style="fill:#272727;fill-opacity:1" />
    <path
       d="M899 4593 c-15 -2 -51 -18 -80 -36 -71 -43 -111 -107 -117 -187 -6 -88 2 -114 75 -245 138 -249 293 -459 470 -637 l106 -107 36 29 c61 48 251 130 301 130 122 0 209 -110 186 -235 -9 -46 -57 -100 -115 -129 l-46 -24 39 -16 c56 -23 145 -45 215 -52 l61 -7 0 -448 0 -449 -435 0 -435 0 0 45 c0 175 56 463 122 630 66 166 173 315 226 315 38 0 232 94 260 125 33 39 30 89 -8 127 -41 41 -73 36 -213 -32 -90 -43 -111 -58 -122 -84 -8 -17 -35 -51 -61 -76 -178 -171 -304 -529 -330 -942 l-7 -108 -118 0 -119 0 0 -100 0 -100 1820 0 1821 0 -3 98 -3 97 -226 3 -227 2 6 154 c10 294 -48 506 -204 742 -84 129 -295 336 -449 443 -152 105 -295 186 -382 216 l-68 24 -82 -82 -83 -82 -83 83 -83 82 -54 -19 c-30 -10 -107 -44 -170 -74 -141 -68 -192 -82 -274 -74 -118 11 -243 78 -384 204 -129 116 -356 425 -478 652 -59 111 -162 163 -285 144z m1895 -1575 l77 -517 -77 -106 c-43 -58 -81 -105 -85 -105 -4 0 -42 47 -84 105 l-77 106 79 524 c43 288 81 521 84 517 3 -4 41 -240 83 -524z m653 -451 c12 -44 16 -98 16 -187 -2 -160 -10 -194 -46 -198 l-27 -3 1 268 0 268 20 -43 c10 -24 26 -71 36 -105z"
       id="path2164"
       style="fill:#272727;fill-opacity:1" />
    <path
       d="M1120 920 l0 -920 1435 0 1435 0 -2 918 -3 917 -1432 3 -1433 2 0 -920z"
       id="path2166"
       style="fill:#272727;fill-opacity:1" />
  </g>
</svg>
